<?xml version="1.0" encoding="utf-8"?>
<!-- Generator: Adobe Illustrator 22.1.0, SVG Export Plug-In . SVG Version: 6.00 Build 0)  -->
<svg width="119px" height="39px" version="1.1" id="Layer_1" xmlns="http://www.w3.org/2000/svg" xmlns:xlink="http://www.w3.org/1999/xlink" x="0px" y="0px"
	 viewBox="0 0 119 39" style="enable-background:new 0 0 119 39;" xml:space="preserve">
<style type="text/css">
	.st0{fill:none;}
	.st1{fill:#CF000F;}
</style>
<title>Logo</title>
<desc>Created with Sketch.</desc>
<rect x="54.6" y="18.5" class="st0" width="66" height="22.7"/>
<g>
	<path class="st1" d="M60.6,22.1v3.6h4.6v3.6h-4.6v7.2H57v-18h8.9v3.6L60.6,22.1L60.6,22.1z"/>
	<path class="st1" d="M68.9,18.5H76c3.2,0,5.2,2.2,5.1,5.4c-0.1,1.3-0.5,2.7-1.7,3.5c1.2,0.8,1.9,2.2,1.9,3.6c0,3-2.3,5.4-5.2,5.4
		H69L68.9,18.5z M72.5,25.7h2.2h0.8c0.9,0,1.8-0.6,1.9-1.5c0.2-1.2-0.5-2.1-1.7-2.1h-3.2V25.7z M72.5,32.8h2.2h0.9
		c0.9,0,1.8-0.7,1.9-1.6c0.1-1.2-0.6-2-1.9-2h-3.2V32.8z"/>
	<path class="st1" d="M92.6,22c-6.9,0.2-6.9,10.8,0,11c1.7,0,2.9-0.4,3.6-0.8l0.5,3.7c-1.1,0.4-2.7,0.7-3.9,0.7
		c-12.1-0.1-12.1-18.3-0.1-18.3c1.2,0,2.4,0.3,3.5,0.7l-0.4,3.7C95.3,22.3,94.3,21.9,92.6,22z"/>
</g>
<g>
	<g>
		<path class="st1" d="M32.4,35.8c0-0.4-0.3-0.8-0.8-0.8H21c-1.9,0-3.5-1.5-3.5-3.5V9.7h4.6v2.9c0,0.4,0.3,0.8,0.8,0.8
			s0.8-0.3,0.8-0.8V9.7h9.1v2.9c0,0.4,0.3,0.8,0.8,0.8c0.4,0,0.8-0.3,0.8-0.8V9.7H39v1.5c0,0.4,0.3,0.8,0.8,0.8s0.8-0.3,0.8-0.8V8.9
			c0-0.4-0.3-0.8-0.8-0.8h-5.4c-0.1-3.2-2.8-5.8-6.1-5.8s-5.9,2.6-6,5.8h-5.5c-0.4,0-0.8,0.3-0.8,0.8v22.7c0,2.7,2.2,5,5,5h10.6
			C32,36.5,32.4,36.1,32.4,35.8z M28.4,3.7c2.4,0,4.4,1.9,4.6,4.3h-9.1C23.9,5.6,25.8,3.7,28.4,3.7z"/>
		<path class="st1" d="M38.8,17.5v0.9h-4.2c-0.4,0-0.8,0.3-0.8,0.8v13.4c0,2.2,1.7,3.9,3.9,3.9h12c2.2,0,3.9-1.7,3.9-3.9V19.2
			c0-0.4-0.3-0.8-0.8-0.8h-4.2v-0.9c0-2.7-2.2-5-5-5C41,12.6,38.8,14.8,38.8,17.5z M48,22.6c0.4,0,0.8-0.3,0.8-0.8v-1.9h3.5v12.7
			c0,1.3-1.1,2.4-2.4,2.4H37.8c-1.3,0-2.4-1.1-2.4-2.4V20h3.5V22c0,0.4,0.3,0.8,0.8,0.8s0.8-0.3,0.8-0.8V20h6.9V22
			C47.2,22.3,47.6,22.6,48,22.6z M47.2,17.5v0.9h-6.9v-0.9c0-1.9,1.6-3.5,3.5-3.5C45.7,14.1,47.2,15.7,47.2,17.5z"/>
	</g>
</g>
</svg>
