<?xml version="1.0" encoding="utf-8"?>
<!-- Generator: Adobe Illustrator 22.1.0, SVG Export Plug-In . SVG Version: 6.00 Build 0)  -->
<svg version="1.1" baseProfile="basic" id="Layer_1"
	 xmlns="http://www.w3.org/2000/svg" xmlns:xlink="http://www.w3.org/1999/xlink" x="0px" y="0px" viewBox="0 0 119 39"
	 xml:space="preserve">
<style type="text/css">
	.st0{fill:none;}
	.st1{fill:#C0392B;}
</style>
<title>Logo</title>
<desc>Created with Sketch.</desc>
<rect x="44.4" y="18.7" class="st0" width="74.6" height="25.7"/>
<g>
	<path class="st1" d="M51.2,22.8v4.1h5.2V31h-5.2v8.1h-4.1V18.8h10.1v4.1H51.2z"/>
	<path class="st1" d="M60.6,18.7h8c3.6,0,5.9,2.5,5.8,6.1c-0.1,1.5-0.6,3.1-1.9,4c1.3,0.9,2.1,2.5,2.1,4.1c0,3.4-2.6,6.1-5.9,6.1h-8
		L60.6,18.7z M64.7,26.8h2.5l0.9,0c1,0,2-0.7,2.1-1.7c0.2-1.3-0.6-2.4-1.9-2.4h-3.6L64.7,26.8z M64.7,34.9h2.5h1c1,0,2-0.8,2.2-1.8
		c0.1-1.3-0.7-2.3-2.1-2.3h-3.6L64.7,34.9z"/>
	<path class="st1" d="M87.4,22.6c-7.8,0.2-7.8,12.2,0,12.4c1.9,0,3.3-0.5,4.1-0.9l0.6,4.2c-1.2,0.5-3,0.8-4.4,0.8
		C74,39,74,18.4,87.6,18.4c1.4,0,2.7,0.3,4,0.8l-0.5,4.2C90.4,23,89.3,22.5,87.4,22.6z"/>
</g>
<g>
	<g>
		<path class="st1" d="M19.3,38.2c0-0.5-0.3-0.9-0.9-0.9h-12c-2.2,0-3.9-1.7-3.9-3.9V8.7h5.2V12c0,0.5,0.3,0.9,0.9,0.9
			c0.6,0,0.9-0.3,0.9-0.9V8.7h10.3V12c0,0.5,0.3,0.9,0.9,0.9c0.5,0,0.9-0.3,0.9-0.9V8.7h5.2v1.7c0,0.5,0.3,0.9,0.9,0.9
			c0.6,0,0.9-0.3,0.9-0.9V7.8c0-0.5-0.3-0.9-0.9-0.9h-6.1c-0.1-3.6-3.2-6.6-6.9-6.6S8,3.2,7.9,6.9H1.7c-0.5,0-0.9,0.3-0.9,0.9v25.6
			c0,3.1,2.5,5.6,5.6,5.6h12C18.9,39,19.3,38.6,19.3,38.2z M14.8,2c2.7,0,5,2.2,5.2,4.9H9.7C9.7,4.1,11.9,2,14.8,2z"/>
		<path class="st1" d="M26.6,17.6v1h-4.8c-0.5,0-0.9,0.3-0.9,0.9v15.1c0,2.5,1.9,4.4,4.4,4.4h13.6c2.5,0,4.4-1.9,4.4-4.4V19.5
			c0-0.5-0.3-0.9-0.9-0.9h-4.8v-1c0-3.1-2.5-5.7-5.7-5.7C29.1,12,26.6,14.5,26.6,17.6z M37,23.3c0.5,0,0.9-0.3,0.9-0.9v-2.2h3.9
			v14.3c0,1.5-1.2,2.7-2.7,2.7H25.4c-1.5,0-2.7-1.2-2.7-2.7V20.4h3.9v2.2c0,0.5,0.3,0.9,0.9,0.9c0.6,0,0.9-0.3,0.9-0.9v-2.2h7.8v2.2
			C36.1,23,36.5,23.3,37,23.3z M36.1,17.6v1h-7.8v-1c0-2.2,1.8-4,4-4C34.4,13.7,36.1,15.5,36.1,17.6z"/>
	</g>
</g>
</svg>
