<?xml version="1.0" encoding="utf-8"?>
<!-- Generator: Adobe Illustrator 22.1.0, SVG Export Plug-In . SVG Version: 6.00 Build 0)  -->
<svg width="150px" height="50px" version="1.1" id="Layer_1" xmlns="http://www.w3.org/2000/svg" xmlns:xlink="http://www.w3.org/1999/xlink" x="0px" y="0px"
	 viewBox="0 0 119 39" style="enable-background:new 0 0 119 39;" xml:space="preserve">
<style type="text/css">
	.st0{fill:#383838;}
	.st1{fill:#CF000F;}
	.st2{clip-path:url(#SVGID_4_);}
	.st3{fill:#FFFFFF;}
</style>
<title>Logo</title>
<desc>Created with Sketch.</desc>
<g id="Logo">
	<g>
		<g>
			<path class="st0" d="M46.4,32.4c0.3,0.1,0.5,0.2,0.8,0.3s0.6,0.1,1.1,0.1c0.7,0,1.1-0.1,1.5-0.4c0.3-0.3,0.5-0.6,0.5-1.1
				c0-0.2,0-0.4-0.1-0.6c-0.1-0.2-0.2-0.3-0.3-0.4s-0.3-0.2-0.5-0.3c-0.2-0.1-0.4-0.2-0.7-0.3L48,29.3c-0.2-0.1-0.4-0.2-0.6-0.3
				s-0.4-0.3-0.5-0.4c-0.1-0.2-0.3-0.4-0.3-0.6s-0.1-0.5-0.1-0.8c0-0.7,0.2-1.3,0.7-1.7c0.5-0.4,1.2-0.6,2.1-0.6
				c0.4,0,0.7,0,1.1,0.1c0.3,0.1,0.6,0.1,0.9,0.2c0,0.3-0.1,0.7-0.3,1c-0.2-0.1-0.5-0.2-0.8-0.2c-0.3-0.1-0.6-0.1-1-0.1
				c-0.5,0-0.9,0.1-1.2,0.3s-0.4,0.5-0.4,0.9c0,0.2,0,0.3,0.1,0.5c0.1,0.1,0.2,0.2,0.3,0.3c0.1,0.1,0.2,0.2,0.4,0.3s0.3,0.2,0.5,0.2
				l0.7,0.3c0.3,0.1,0.6,0.3,0.9,0.4c0.2,0.1,0.5,0.3,0.6,0.5c0.2,0.2,0.3,0.4,0.4,0.7s0.1,0.6,0.1,0.9c0,0.8-0.3,1.5-0.9,2
				c-0.6,0.5-1.4,0.7-2.4,0.7c-0.2,0-0.5,0-0.7,0c-0.2,0-0.4,0-0.6-0.1s-0.3-0.1-0.5-0.1c-0.2,0-0.3-0.1-0.5-0.2
				c0-0.2,0.1-0.4,0.1-0.5C46.3,32.7,46.4,32.5,46.4,32.4z"/>
			<path class="st0" d="M55.3,26.1h-2.2c0-0.1,0-0.2,0-0.3c0-0.1,0-0.2,0-0.3s0-0.2,0-0.3c0-0.1,0-0.2,0-0.3h5.7c0,0.1,0,0.2,0,0.3
				c0,0.1,0,0.2,0,0.3c0,0.1,0,0.2,0,0.3s0,0.2,0,0.3h-2.2v7.6c-0.2,0-0.4,0-0.6,0c-0.2,0-0.4,0-0.6,0V26.1z"/>
			<path class="st0" d="M63.7,33.8c-0.6,0-1.2-0.1-1.6-0.3s-0.8-0.5-1.1-0.9c-0.3-0.4-0.5-0.9-0.7-1.4C60.1,30.6,60,30,60,29.3
				s0.1-1.2,0.2-1.8c0.1-0.5,0.4-1,0.7-1.4c0.3-0.4,0.7-0.7,1.1-0.9s1-0.3,1.6-0.3c0.6,0,1.2,0.1,1.6,0.3s0.8,0.5,1.1,0.9
				c0.3,0.4,0.5,0.9,0.7,1.4c0.1,0.5,0.2,1.1,0.2,1.8s-0.1,1.2-0.2,1.8c-0.1,0.5-0.4,1-0.7,1.4c-0.3,0.4-0.7,0.7-1.1,0.9
				S64.3,33.8,63.7,33.8z M63.7,32.7c0.4,0,0.7-0.1,1-0.2c0.3-0.2,0.5-0.4,0.7-0.7s0.3-0.7,0.4-1.1c0.1-0.4,0.1-0.9,0.1-1.4
				c0-0.5,0-1-0.1-1.4c-0.1-0.4-0.2-0.8-0.4-1.1c-0.2-0.3-0.4-0.5-0.7-0.7c-0.3-0.2-0.6-0.2-1-0.2c-0.4,0-0.7,0.1-1,0.2
				s-0.5,0.4-0.7,0.7c-0.2,0.3-0.3,0.6-0.4,1.1c-0.1,0.4-0.1,0.9-0.1,1.4c0,0.5,0,1,0.1,1.4c0.1,0.4,0.2,0.8,0.4,1.1
				s0.4,0.5,0.7,0.7S63.3,32.7,63.7,32.7z"/>
			<path class="st0" d="M69.7,25c0.2,0,0.3,0,0.5,0c0.1,0,0.3,0,0.4,0c0.1,0,0.3,0,0.4,0c0.2,0,0.3,0,0.5,0c0.4,0,0.8,0,1.2,0.1
				c0.4,0.1,0.8,0.2,1.1,0.4c0.3,0.2,0.6,0.5,0.8,0.8s0.3,0.8,0.3,1.3c0,0.3-0.1,0.6-0.2,0.9c-0.1,0.3-0.2,0.5-0.4,0.7
				c-0.2,0.2-0.3,0.4-0.5,0.5s-0.4,0.3-0.6,0.4L73.1,30l2.5,3.6c-0.2,0-0.5,0-0.7,0c-0.2,0-0.4,0-0.6,0l-2.8-4v0l0.1,0
				c0.2-0.1,0.4-0.1,0.7-0.2c0.2-0.1,0.5-0.2,0.7-0.4c0.2-0.2,0.4-0.3,0.5-0.6s0.2-0.5,0.2-0.8c0-0.6-0.2-1-0.5-1.3
				c-0.3-0.3-0.8-0.4-1.4-0.4c-0.1,0-0.3,0-0.4,0c-0.1,0-0.2,0-0.4,0v7.7c-0.1,0-0.2,0-0.3,0c-0.1,0-0.2,0-0.3,0c-0.1,0-0.2,0-0.3,0
				s-0.2,0-0.3,0V25z"/>
			<path class="st0" d="M77.5,25h4.8c0,0.2,0,0.3,0,0.5c0,0.1,0,0.2,0,0.3c0,0.1,0,0.2,0,0.3h-3.5v2.5h2.8c0,0.1,0,0.2,0,0.3
				s0,0.2,0,0.3s0,0.2,0,0.3c0,0.1,0,0.2,0,0.3h-2.8v3h3.6c0,0.2,0,0.3,0,0.5c0,0.1,0,0.2,0,0.3c0,0.1,0,0.2,0,0.3h-4.8V25z"/>
		</g>
		<g>
			<g>
				<path class="st1" d="M20,2.3C10.4,2.3,2.7,10,2.7,19.5c0,9.5,7.8,17.3,17.3,17.3c9.5,0,17.3-7.8,17.3-17.3
					C37.3,10,29.5,2.3,20,2.3z M20,38.6c-10.5,0-19-8.5-19-19c0-10.5,8.5-19,19-19c10.5,0,19,8.5,19,19C39,30,30.5,38.6,20,38.6z"/>
			</g>
			<g>
				<g>
					<defs>
						<circle id="SVGID_1_" cx="20" cy="19.5" r="14.3"/>
					</defs>
					<clipPath id="SVGID_2_">
						<use xlink:href="#SVGID_1_"  style="overflow:visible;"/>
					</clipPath>
				</g>
				<g>
					<defs>
						<circle id="SVGID_3_" cx="20" cy="19.5" r="14.3"/>
					</defs>
					<use xlink:href="#SVGID_3_"  style="overflow:visible;fill:#CF000F;"/>
					<clipPath id="SVGID_4_">
						<use xlink:href="#SVGID_3_"  style="overflow:visible;"/>
					</clipPath>
					<g class="st2">
						<g>
							<g>
								<path class="st0" d="M31.4,8.1H9.3L6.4,36.6h27.8L31.4,8.1z"/>
							</g>
						</g>
					</g>
				</g>
				<g>
					<defs>
						<circle id="SVGID_5_" cx="20" cy="19.5" r="14.3"/>
					</defs>
					<clipPath id="SVGID_6_">
						<use xlink:href="#SVGID_5_"  style="overflow:visible;"/>
					</clipPath>
				</g>
			</g>
			<path class="st0" d="M20,33.8c5.9,0,11-3.6,13.1-8.7l-1.7-17H9.3L7.5,26.4C9.9,30.8,14.6,33.8,20,33.8z"/>
			<g>
				<path class="st3" d="M25.4,12.8c-0.4,1.5-1.8,4.9-5.7,4.9c-3.9,0-5-3.5-5.3-4.9c-0.3-0.1-0.5-0.4-0.5-0.7c0-0.4,0.4-0.8,0.8-0.8
					c0.4,0,0.8,0.4,0.8,0.8c0,0.2-0.1,0.4-0.3,0.6c0.2,1.3,1.2,4.3,4.6,4.3c3.3,0,4.5-3,4.9-4.3c-0.2-0.1-0.3-0.4-0.3-0.6
					c0-0.4,0.4-0.8,0.8-0.8c0.4,0,0.8,0.4,0.8,0.8C26,12.4,25.7,12.7,25.4,12.8z"/>
			</g>
		</g>
		<g>
			<g>
				<path class="st1" d="M46.9,8.4h7.8c0.1,0.4,0.1,0.8,0.1,1.2c0,0.4,0,0.8-0.1,1.2h-5V14h4c0.1,0.4,0.1,0.8,0.1,1.2
					c0,0.4,0,0.8-0.1,1.2h-4v5.7c-0.5,0.1-0.9,0.1-1.4,0.1c-0.5,0-0.9,0-1.4-0.1V8.4z"/>
				<path class="st1" d="M59.2,8.4c0.4-0.1,0.9-0.1,1.4-0.2s1.2-0.1,2-0.1c0.7,0,1.4,0.1,2,0.2s1.2,0.3,1.6,0.6
					c0.5,0.3,0.8,0.6,1.1,1.1s0.4,1,0.4,1.7c0,0.4-0.1,0.8-0.2,1.1c-0.1,0.3-0.3,0.7-0.5,0.9c-0.2,0.3-0.4,0.5-0.7,0.6
					s-0.5,0.3-0.8,0.3c0.3,0,0.6,0.1,1,0.3c0.4,0.1,0.7,0.3,1,0.6s0.6,0.6,0.8,1.1c0.2,0.4,0.3,1,0.3,1.6c0,0.8-0.2,1.5-0.5,2
					c-0.3,0.5-0.7,0.9-1.3,1.2c-0.5,0.3-1.1,0.5-1.8,0.6c-0.7,0.1-1.4,0.2-2.2,0.2c-0.6,0-1.2,0-1.7,0c-0.6,0-1.2-0.1-1.9-0.2V8.4z
					 M62.8,14c0.3,0,0.6,0,0.9-0.1c0.3-0.1,0.5-0.2,0.7-0.3c0.2-0.1,0.4-0.3,0.5-0.6S65,12.4,65,12c0-0.4-0.1-0.7-0.2-0.9
					c-0.1-0.2-0.3-0.4-0.5-0.6c-0.2-0.1-0.4-0.2-0.7-0.3s-0.5-0.1-0.8-0.1c-0.4,0-0.7,0-0.9,0.1V14H62.8z M62,20
					c0.2,0,0.4,0,0.6,0.1c0.2,0,0.4,0,0.6,0c0.3,0,0.5,0,0.8-0.1c0.3-0.1,0.6-0.1,0.8-0.3s0.5-0.3,0.6-0.6c0.2-0.3,0.2-0.6,0.2-1
					c0-0.4-0.1-0.7-0.2-1c-0.1-0.3-0.3-0.5-0.5-0.6c-0.2-0.2-0.5-0.3-0.8-0.3c-0.3-0.1-0.7-0.1-1.1-0.1H62V20z"/>
				<path class="st1" d="M82.3,19.5c0.2,0.4,0.3,0.7,0.4,1.1c0.1,0.4,0.2,0.8,0.2,1.1c-0.7,0.2-1.3,0.4-1.8,0.5
					c-0.5,0.1-1.1,0.1-1.7,0.1c-1.1,0-2-0.2-2.8-0.5c-0.8-0.3-1.5-0.8-2-1.5c-0.6-0.6-1-1.4-1.2-2.2s-0.4-1.8-0.4-2.8
					c0-1,0.1-2,0.4-2.8c0.3-0.9,0.7-1.6,1.3-2.3c0.6-0.6,1.2-1.1,2-1.5c0.8-0.4,1.7-0.5,2.8-0.5c0.6,0,1.2,0,1.7,0.1
					c0.5,0.1,1.1,0.2,1.7,0.5c0,0.4-0.1,0.8-0.2,1.1c-0.1,0.4-0.3,0.7-0.4,1.1c-0.4-0.2-0.8-0.3-1.2-0.3c-0.3-0.1-0.7-0.1-1.2-0.1
					c-1.2,0-2.2,0.4-2.8,1.2c-0.7,0.8-1,2-1,3.5c0,3.1,1.3,4.6,3.9,4.6c0.5,0,0.9,0,1.2-0.1C81.4,19.8,81.8,19.7,82.3,19.5z"/>
			</g>
		</g>
	</g>
</g>
</svg>
